<svg xmlns="http://www.w3.org/2000/svg" width="19.3" height="19.199" viewBox="0 0 19.3 19.199"><defs><style>.a{fill:#fff;}</style></defs><path class="a" d="M1192.9,8650.2a.861.861,0,0,1-.8-.8v-1.7a.43.43,0,0,0-.4-.4.367.367,0,0,0-.3.1l-1.2,1.2a.783.783,0,0,1-1.1,0l-2.5-2.5a.784.784,0,0,1,0-1.1l1.2-1.2a.458.458,0,0,0,0-.5.375.375,0,0,0-.3-.1h-1.7a.861.861,0,0,1-.8-.8v-3.5a.859.859,0,0,1,.8-.8h1.7a.43.43,0,0,0,.4-.4.373.373,0,0,0-.1-.3l-1.2-1.2a.786.786,0,0,1,0-1.1l2.5-2.5a.78.78,0,0,1,1.1,0l1.2,1.2a.367.367,0,0,0,.3.1.429.429,0,0,0,.4-.4v-1.7a.861.861,0,0,1,.8-.8h3.5a.861.861,0,0,1,.8.8v1.7a.429.429,0,0,0,.4.4.367.367,0,0,0,.3-.1l1.2-1.2a.782.782,0,0,1,1.1,0l2.5,2.5a.786.786,0,0,1,0,1.1l-1.2,1.2a.456.456,0,0,0,0,.5.37.37,0,0,0,.3.1h1.7a.859.859,0,0,1,.8.8v3.5a.859.859,0,0,1-.8.8h-1.7a.43.43,0,0,0-.4.4.37.37,0,0,0,.1.3l1.2,1.2a.784.784,0,0,1,0,1.1l-2.5,2.5a.786.786,0,0,1-1.1,0l-1.2-1.2a.367.367,0,0,0-.3-.1.43.43,0,0,0-.4.4v1.7a.861.861,0,0,1-.8.8Zm.9-2.6v.9h1.9v-.9a2.005,2.005,0,0,1,2-2,1.976,1.976,0,0,1,1.4.6l.6.6,1.3-1.3-.6-.6a1.929,1.929,0,0,1,0-2.8,1.975,1.975,0,0,1,1.4-.6h.9v-1.9h-.9a2.006,2.006,0,0,1-2-2,1.966,1.966,0,0,1,.6-1.4l.6-.6-1.3-1.3-.6.6a1.979,1.979,0,0,1-1.4.6,2.006,2.006,0,0,1-2-2v-.9h-1.9v.9a2.006,2.006,0,0,1-2,2,1.983,1.983,0,0,1-1.4-.6l-.6-.6-1.3,1.3.6.6a1.936,1.936,0,0,1,0,2.8,1.98,1.98,0,0,1-1.4.6h-.9v1.9h.9a2.008,2.008,0,0,1,2,2,1.97,1.97,0,0,1-.6,1.4l-.6.6,1.3,1.3.6-.6a1.98,1.98,0,0,1,1.4-.6A2,2,0,0,1,1193.8,8647.6Zm-2-6.8a2.9,2.9,0,1,1,2.9,2.9A2.9,2.9,0,0,1,1191.8,8640.8Zm1.3.1a1.58,1.58,0,0,0,1.6,1.6,1.628,1.628,0,0,0,1.7-1.7,1.651,1.651,0,0,0-3.3.1Z" transform="translate(-1185 -8631.001)"/></svg>