<svg xmlns="http://www.w3.org/2000/svg" width="15.018" height="19" viewBox="0 0 15.018 19"><defs><style>.a{fill:#7e7ea5;}</style></defs><g transform="translate(-811.604 -557)"><path class="a" d="M94.856,2.237H92.319V.589a.589.589,0,0,0-.6-.589.09.09,0,0,0-.064.021A.082.082,0,0,0,91.612,0H85.565a.58.58,0,0,0-.589.589V2.237H82.428a1.279,1.279,0,0,0-1.3,1.3V5.652h1.124V17.715A1.261,1.261,0,0,0,83.541,19h10.2a1.27,1.27,0,0,0,1.3-1.285V5.652h1.113V3.532A1.28,1.28,0,0,0,94.856,2.237Zm-8.7-1.06h4.978v1.06H86.153Zm7.7,16.538c0,.075-.032.107-.107.107h-10.2c-.075,0-.107-.032-.107-.107V5.652H93.85ZM94.963,4.474H82.321V3.532c0-.075.032-.118.107-.118H94.856c.075,0,.107.043.107.118Z" transform="translate(730.472 557)"/><rect class="a" width="1.188" height="9.741" transform="translate(821.271 564.033)"/><rect class="a" width="1.188" height="9.741" transform="translate(818.53 564.033)"/><rect class="a" width="1.188" height="9.741" transform="translate(815.79 564.033)"/></g></svg>