<svg xmlns="http://www.w3.org/2000/svg" width="20.014" height="15.699" viewBox="0 0 20.014 15.699"><defs><style>.a{opacity:0.998;}.b{fill:#a1a1c3;}</style></defs><g class="a" transform="translate(-15.993 -135.838)"><g transform="translate(42 282.438)"><path class="b" d="M-8.2-146.6H-23.8a2.351,2.351,0,0,0-2.2,2.5v10.7a2.351,2.351,0,0,0,2.2,2.5H-8.2A2.351,2.351,0,0,0-6-133.4v-10.7A2.351,2.351,0,0,0-8.2-146.6Zm.5,13.2a.472.472,0,0,1-.5.5H-23.8a.536.536,0,0,1-.5-.5v-7.8H-7.7Zm0-9.7H-24.3v-1a.472.472,0,0,1,.5-.5H-8.2a.536.536,0,0,1,.5.5v1Z"/></g><g transform="translate(52.08 289.505)"><path class="b" d="M-23.7-146.6H-25a.987.987,0,0,0-1,.9.987.987,0,0,0,.9,1h1.4a.987.987,0,0,0,1-.9,1.071,1.071,0,0,0-1-1Z"/></g><g transform="translate(45.414 289.505)"><path class="b" d="M-21.5-146.6H-25a.987.987,0,0,0-.9,1,.9.9,0,0,0,.9.9h3.6a.987.987,0,0,0,.9-1C-20.5-146.1-21-146.5-21.5-146.6Z"/></g><g transform="translate(45.446 292.684)"><path class="b" d="M-23-146.6h-2a.987.987,0,0,0-.9,1,.9.9,0,0,0,.9.9h2.1a.987.987,0,0,0,.9-1A1.319,1.319,0,0,0-23-146.6Z"/></g></g></svg>