<svg xmlns="http://www.w3.org/2000/svg" width="18.5" height="18.602" viewBox="0 0 18.5 18.602"><defs><style>.a{fill:#fff;}</style></defs><path class="a" d="M17.1,4.8H14.2l.1-.1a2.91,2.91,0,0,0,0-3.9A2.537,2.537,0,0,0,10.7.7l-.1.1A8.026,8.026,0,0,0,9.1,3.5,5.638,5.638,0,0,0,7.8.8,2.537,2.537,0,0,0,4.2.7L4.1.8a2.91,2.91,0,0,0,0,3.9l.1.1H1.4A1.43,1.43,0,0,0,0,6.2v3a.876.876,0,0,0,.8.9h.3v7a1.52,1.52,0,0,0,1.4,1.5H16a1.453,1.453,0,0,0,1.4-1.5v-7h.3a.817.817,0,0,0,.8-.9v-3A1.43,1.43,0,0,0,17.1,4.8ZM8.4,10.1v6.7H2.8V10.1H8.4ZM7.9,4.8A4.953,4.953,0,0,1,5.3,3.5,1.087,1.087,0,0,1,5.3,2h0a.864.864,0,0,1,.6-.3h0a1.421,1.421,0,0,1,.6.2l.1.1A6.227,6.227,0,0,1,7.9,4.8Zm.5,1.7V8.4H1.6V6.5Zm2.2-1.7A6.564,6.564,0,0,1,11.8,2h0a.735.735,0,0,1,.6-.2,1.08,1.08,0,0,1,.7.3,1.088,1.088,0,0,1,0,1.5A5.84,5.84,0,0,1,10.6,4.8Zm6.3,1.7V8.4H10.1V6.5Zm-1.1,3.6v6.7H10.1V10.1h5.7Z" transform="translate(0 0.002)"/></svg>