<svg xmlns="http://www.w3.org/2000/svg" width="18.3" height="19.3" viewBox="0 0 18.3 19.3"><defs><style>.a{fill:#a1a1c3;}</style></defs><g transform="translate(-17.7 -264.4)"><path class="a" d="M29.7,269.9v-5.5H24v5.5l2.8,2.5Zm-1.5-3.8V269l-1.4,1.2-1.3-1.1v-3Z"/><path class="a" d="M24,278.2v5.5h5.6v-5.5l-2.8-2.5Zm1.4,3.9v-2.9l1.4-1.2,1.3,1.1v3Z"/><path class="a" d="M23.4,271.3H17.7v5.5h5.7l2.6-2.7Zm-4.1,4.1v-2.6h3.1l1.2,1.3-1.2,1.3H19.3Z"/><path class="a" d="M30.3,271.3,27.7,274l2.6,2.7H36v-5.5H30.3Zm4,1.5v2.6H31.2L30,274.1l1.2-1.3h3.1Z"/></g></svg>