<svg xmlns="http://www.w3.org/2000/svg" viewBox="0 0 21.075 22"><defs><style>.a{fill:#fff;}</style></defs><g transform="translate(-9.212 -0.001)"><path class="a" d="M30.272,15.065a.89.89,0,0,0-.251-.488.856.856,0,0,0-1.032-.187,7.763,7.763,0,0,1-7.18-.315,7.77,7.77,0,0,1-2.837-2.838,7.619,7.619,0,0,1-1.046-3.913,7.658,7.658,0,0,1,2.537-5.733A.839.839,0,0,0,20.677.561.831.831,0,0,0,19.8,0,10.981,10.981,0,0,0,9.212,10.994a10.709,10.709,0,0,0,.874,4.271,10.874,10.874,0,0,0,5.862,5.862,10.919,10.919,0,0,0,10.2-.867,10.823,10.823,0,0,0,4.063-4.65A.917.917,0,0,0,30.272,15.065Zm-6.134,4.22a9.021,9.021,0,0,1-3.92.882,8.918,8.918,0,0,1-3.561-.731,9.045,9.045,0,0,1-4.88-4.88,8.916,8.916,0,0,1-.731-3.561,9.15,9.15,0,0,1,6.535-8.785,9.417,9.417,0,0,0-1.491,5.116,9.61,9.61,0,0,0,4.8,8.341,9.45,9.45,0,0,0,4.829,1.29,9.565,9.565,0,0,0,1.577-.129A9.133,9.133,0,0,1,24.138,19.285Z" transform="translate(0 0)"/></g></svg>