<svg xmlns="http://www.w3.org/2000/svg" width="16.695" height="19" viewBox="0 0 16.695 19"><defs><style>.a{fill:#a1a1c3;}</style></defs><path class="a" d="M35.632,206.292a3.588,3.588,0,0,0-1.249-1.249h0a1.012,1.012,0,0,0-.937-.1,1.2,1.2,0,0,0-.729.52,1.012,1.012,0,0,0-.1.937,1.2,1.2,0,0,0,.52.729,1.516,1.516,0,0,1,.624.937,1.21,1.21,0,0,1-.208,1.041c-.1.208-.312.312-.416.416l-9.055,5.724a1.282,1.282,0,0,1-1.041.208,1.516,1.516,0,0,1-.937-.624,1.929,1.929,0,0,1-.208-.729V202.753a1.423,1.423,0,0,1,1.457-1.457,1.5,1.5,0,0,1,.729.208l5.308,3.33a1.214,1.214,0,0,0,1.249-2.081l-5.308-3.33a3.741,3.741,0,0,0-5.2,1.249,3.427,3.427,0,0,0-.624,1.977v11.344a3.73,3.73,0,0,0,1.977,3.33,4.241,4.241,0,0,0,1.873.52,3.427,3.427,0,0,0,1.977-.624l9.055-5.724a3.651,3.651,0,0,0,1.665-2.394A3.364,3.364,0,0,0,35.632,206.292Z" transform="translate(-19.5 -198.844)"/></svg>