<svg xmlns="http://www.w3.org/2000/svg" viewBox="0 0 15.52 19.033"><defs><style>.a{fill:#9b9bb5;}</style></defs><path class="a" d="M165.733,69.351l4.54,3.1a.867.867,0,0,0,.984,0l4.526-3.1a6.839,6.839,0,0,0,2.734-5.217v-6.28a.861.861,0,0,0-.47-.791l-6.912-3.4a.865.865,0,0,0-.77,0l-6.9,3.391a.859.859,0,0,0-.469.791v6.289A6.839,6.839,0,0,0,165.733,69.351ZM164.758,58.4l6-2.96,6,2.968v5.732a5.074,5.074,0,0,1-1.966,3.761l-4.043,2.765L166.719,67.9a5.071,5.071,0,0,1-1.961-3.762Zm0,0" transform="translate(-162.997 -53.574)"/><path class="a" d="M203.569,121.134a.879.879,0,0,0,.623.264h0a.881.881,0,0,0,.623-.261l3.5-3.5a.881.881,0,0,0-1.245-1.246l-2.877,2.877-1.15-1.161a.881.881,0,1,0-1.252,1.24Zm0,0" transform="translate(-197.299 -109.244)"/></svg>