<svg xmlns="http://www.w3.org/2000/svg" width="19.3" height="19.2" viewBox="0 0 19.3 19.2"><defs><style>.a{fill:#a1a1c3;}</style></defs><g transform="translate(-16.7 -397.2)"><path class="a" d="M26.4,404.1a2.9,2.9,0,1,0,2.9,2.9A2.9,2.9,0,0,0,26.4,404.1Zm0,4.6a1.58,1.58,0,0,1-1.6-1.6,1.735,1.735,0,0,1,1.6-1.7h0a1.735,1.735,0,0,1,1.7,1.6A1.628,1.628,0,0,1,26.4,408.7Z"/><path class="a" d="M35.2,404.2H33.5a.367.367,0,0,1-.3-.1.454.454,0,0,1,0-.5l1.2-1.2a.785.785,0,0,0,0-1.1l-2.5-2.5a.785.785,0,0,0-1.1,0L29.6,400a.367.367,0,0,1-.3.1h0a.43.43,0,0,1-.4-.4V398a.86.86,0,0,0-.8-.8H24.6a.86.86,0,0,0-.8.8v1.7h0a.43.43,0,0,1-.4.4.367.367,0,0,1-.3-.1l-1.2-1.2a.785.785,0,0,0-1.1,0l-2.5,2.5a.785.785,0,0,0,0,1.1l1.2,1.2a.367.367,0,0,1,.1.3.43.43,0,0,1-.4.4H17.5a.86.86,0,0,0-.8.8v3.5a.86.86,0,0,0,.8.8h1.7a.367.367,0,0,1,.3.1.454.454,0,0,1,0,.5l-1.2,1.2a.785.785,0,0,0,0,1.1l2.5,2.5a.785.785,0,0,0,1.1,0l1.2-1.2a.367.367,0,0,1,.3-.1h0a.43.43,0,0,1,.4.4v1.7a.86.86,0,0,0,.8.8h3.5a.86.86,0,0,0,.8-.8v-1.7h0a.43.43,0,0,1,.4-.4.367.367,0,0,1,.3.1l1.2,1.2a.785.785,0,0,0,1.1,0l2.5-2.5a.785.785,0,0,0,0-1.1L33.2,410a.367.367,0,0,1-.1-.3.43.43,0,0,1,.4-.4h1.7a.86.86,0,0,0,.8-.8V405A.86.86,0,0,0,35.2,404.2Zm-.8,3.5h-.9a1.974,1.974,0,0,0-1.4.6,1.933,1.933,0,0,0,0,2.8l.6.6L31.4,413l-.6-.6a1.974,1.974,0,0,0-1.4-.6,2.006,2.006,0,0,0-2,2v.9H25.5v-.9a2.006,2.006,0,0,0-2-2,1.974,1.974,0,0,0-1.4.6l-.6.6-1.3-1.3.6-.6a1.974,1.974,0,0,0,.6-1.4,2.006,2.006,0,0,0-2-2h-.9v-1.9h.9a1.974,1.974,0,0,0,1.4-.6,1.933,1.933,0,0,0,0-2.8l-.6-.6,1.3-1.3.6.6a1.974,1.974,0,0,0,1.4.6,2.006,2.006,0,0,0,2-2v-.9h1.9v.9a2.006,2.006,0,0,0,2,2,1.974,1.974,0,0,0,1.4-.6l.6-.6,1.3,1.3-.6.6a1.974,1.974,0,0,0-.6,1.4,2.006,2.006,0,0,0,2,2h.9Z"/></g></svg>