<svg xmlns="http://www.w3.org/2000/svg" viewBox="0 0 22.3 22.301"><defs><style>.a{fill:#fff;stroke:#fff;stroke-width:0.3px;}</style></defs><g transform="translate(0.15 0.15)"><path class="a" d="M3.771,11a.943.943,0,0,0-.943-.943H.943a.943.943,0,1,0,0,1.886H2.829A.943.943,0,0,0,3.771,11Zm.943,5.343a.942.942,0,0,0-.667.276L2.79,17.876a.943.943,0,1,0,1.333,1.333l1.257-1.257a.942.942,0,0,0-.666-1.609ZM11,3.771a.943.943,0,0,0,.943-.943V.943a.943.943,0,1,0-1.886,0V2.829A.943.943,0,0,0,11,3.771Zm6.286,1.886a.94.94,0,0,0,.666-.276l1.257-1.257a.943.943,0,1,0-1.333-1.333L16.619,4.048a.943.943,0,0,0,.667,1.609ZM4.047,5.381A.943.943,0,0,0,5.381,4.047L4.124,2.79A.943.943,0,0,0,2.79,4.123Zm17.01,4.676H19.171a.943.943,0,1,0,0,1.886h1.886a.943.943,0,1,0,0-1.886Zm-3.1,6.562a.943.943,0,0,0-1.334,1.333l1.257,1.257a.943.943,0,0,0,1.334-1.333ZM11,18.229a.943.943,0,0,0-.943.943v1.886a.943.943,0,0,0,1.886,0V19.171A.943.943,0,0,0,11,18.229ZM11,4.4A6.6,6.6,0,1,0,17.6,11,6.607,6.607,0,0,0,11,4.4Zm0,11.314A4.714,4.714,0,1,1,15.714,11,4.719,4.719,0,0,1,11,15.714Z"/></g></svg>