<svg xmlns="http://www.w3.org/2000/svg" width="23.711" height="15" viewBox="0 0 23.711 15"><defs><style>.a{fill:#7a74f0;}</style></defs><g transform="translate(0 -72.577)"><g transform="translate(0 72.577)"><path class="a" d="M21.646,80.148A6.312,6.312,0,0,0,9.679,76.357a4.773,4.773,0,0,0-7.369,3.673,3.953,3.953,0,0,0,1.646,7.548H9.668c.28,0,.294-.311.294-.311V84.729a.4.4,0,0,0-.394-.394H8.487c-.217,0-.289-.143-.16-.317l3.294-4.447a.276.276,0,0,1,.469,0l3.294,4.447c.129.174.057.317-.159.317H14.144a.4.4,0,0,0-.394.394v2.542a.314.314,0,0,0,.307.306h5.7a3.955,3.955,0,0,0,1.89-7.429Z" transform="translate(0 -72.577)"/></g></g></svg>