<svg xmlns="http://www.w3.org/2000/svg" viewBox="0 0 20.689 12.414"><defs><style>.a{fill:#fff;fill-rule:evenodd;}</style></defs><path class="a" d="M28.062,51.217H29.3a1.016,1.016,0,0,0,.564-.259.989.989,0,0,0,.17-.571s-.024-1.745.746-2,1.734,1.687,2.767,2.433a1.885,1.885,0,0,0,1.375.441l2.763-.04s1.445-.094.76-1.289a9.63,9.63,0,0,0-2.054-2.5c-1.732-1.691-1.5-1.418.586-4.343,1.271-1.782,1.779-2.869,1.62-3.335-.151-.444-1.086-.326-1.086-.326l-3.111.02a.675.675,0,0,0-.4.074.912.912,0,0,0-.275.351,19.419,19.419,0,0,1-1.149,2.551c-1.385,2.474-1.939,2.6-2.166,2.451-.527-.358-.4-1.438-.4-2.206,0-2.4.346-3.4-.673-3.656a5.064,5.064,0,0,0-1.452-.152,6.394,6.394,0,0,0-2.581.278c-.354.182-.627.588-.461.612a1.371,1.371,0,0,1,.918.486,3.3,3.3,0,0,1,.308,1.481s.183,2.822-.428,3.173c-.419.24-.995-.251-2.23-2.495A21.368,21.368,0,0,1,22.3,39.971a.974.974,0,0,0-.256-.365,1.251,1.251,0,0,0-.478-.2l-2.956.02s-.444.013-.607.216c-.145.18-.012.554-.012.554s2.314,5.695,4.935,8.565a6.914,6.914,0,0,0,5.132,2.458Z" transform="translate(-17.94 -38.855)"/></svg>