<svg xmlns="http://www.w3.org/2000/svg" width="16" height="16" viewBox="0 0 16 16"><defs><style>.a{fill:none;}.b{fill:#a1a1c3;}</style></defs><g transform="translate(-18 -332.4)"><g transform="translate(44 477)"><rect class="a" width="7" height="7" transform="translate(-26 -144.6)"/><path class="b" d="M-19-137.6h-7v-7h7Zm-5.4-1.6h3.8V-143h-3.8Z"/></g><g transform="translate(53 477)"><rect class="a" width="7" height="7" transform="translate(-26 -144.6)"/><path class="b" d="M-19-137.6h-7v-7h7Zm-5.4-1.6h3.8V-143h-3.8Z"/></g><g transform="translate(44 486)"><rect class="a" width="7" height="7" transform="translate(-26 -144.6)"/><path class="b" d="M-19-137.6h-7v-7h7Zm-5.4-1.6h3.8V-143h-3.8Z"/></g><g transform="translate(53 486)"><rect class="a" width="7" height="7" transform="translate(-26 -144.6)"/><path class="b" d="M-19-137.6h-7v-7h7Zm-5.4-1.6h3.8V-143h-3.8Z"/></g></g></svg>