<svg xmlns="http://www.w3.org/2000/svg" width="63.07" height="22.001" viewBox="0 0 63.07 22.001"><defs><style>.a{fill:#fff;}</style></defs><g transform="translate(0 -15.979)"><g transform="translate(48.238 22.331)"><path class="a" d="M52.346,26.54a.988.988,0,0,0-1.077-.777c-.181,0-.361.015-.537,0-.347-.036-.438.08-.436.355.017,1.349.012,2.7.006,4.043a1.886,1.886,0,0,1-1.52,1.614c-2.57.564-5.138,1.137-7.71,1.7a4.055,4.055,0,0,1-.888.093.493.493,0,0,1-.361-.193c-.036-.063.077-.216.166-.294a1.393,1.393,0,0,1,.419-.224c.472-.168.951-.321,1.428-.479,1.908-.635,3.82-1.262,5.726-1.9A1.718,1.718,0,0,0,48.9,28.881c.044-2.344.022-4.688.012-7.034a.859.859,0,0,0-.635-.842,1.735,1.735,0,0,0-1.4.173q-4.052,1.933-8.1,3.862a1.84,1.84,0,0,0-1.235,1.709c.009,2.217,0,4.43.005,6.644a1.055,1.055,0,0,0,.046.329,1.862,1.862,0,0,0,1.91,1.185c1.9.005,3.808,0,5.709,0s3.784,0,5.68,0a1.663,1.663,0,0,0,1.1-.339,1.254,1.254,0,0,0,.379-1.137q.006-3.238,0-6.478A2.122,2.122,0,0,0,52.346,26.54Zm-7.9-.693a1.412,1.412,0,0,1,1.246-.888.737.737,0,0,1,.849.587c.091.586-.641,1.267-1.365,1.264C44.57,26.811,44.233,26.388,44.443,25.847Z" transform="translate(-37.538 -20.922)"/></g><g transform="translate(7.469 18.681)"><path class="a" d="M8.125,18.088v2.029H6.606V18.082H5.812V23.1h.819V20.855h1.5v2.251h.808V18.088Z" transform="translate(-5.812 -18.082)"/></g><g transform="translate(24.384 27.287)"><path class="a" d="M24.575,30a2.57,2.57,0,0,0-2.595-2.038c-.571-.044-1.151-.008-1.767-.008V24.779H18.975v8.836c.916,0,1.8.053,2.675-.014a3.008,3.008,0,0,0,2.776-1.686A3.126,3.126,0,0,0,24.575,30Zm-1.916,1.339c-.23.977-1.23,1.437-2.435,1.151,0-1.085-.005-2.151.01-3.22,0-.071.123-.186.212-.2,1.205-.256,2.011.145,2.221,1.151A2.657,2.657,0,0,1,22.659,31.342Z" transform="translate(-18.975 -24.779)"/></g><g transform="translate(1.57 15.98)"><path class="a" d="M5.184,15.98c-.438,0-.874,0-1.311,0a2.238,2.238,0,0,0-1.548.562,2.44,2.44,0,0,0,.856,4.221c-.645.969-1.286,1.935-1.958,2.948.274,0,.484-.014.69,0a.5.5,0,0,0,.538-.266c.481-.78.991-1.548,1.489-2.322.23-.355.258-.365.8-.261v2.821h.92V16.362C5.661,15.98,5.659,15.981,5.184,15.98Zm-.469,4.076c-.626-.006-1.279.149-1.755-.32a1.729,1.729,0,0,1-.5-1.835,1.68,1.68,0,0,1,.066-.157c.406-.934.942-1.194,2.19-1.038Z" transform="translate(-1.222 -15.98)"/></g><g transform="translate(24.843 18.469)"><path class="a" d="M22.764,22.43c-1.363.455-2.3.044-2.551-1.144a3.249,3.249,0,0,1,.141-1.835c.3-.82.906-1.064,1.908-.793a.234.234,0,0,0,.077-.009c.1-.125.2-.256.315-.4a2.033,2.033,0,0,0-2.579.272,2.966,2.966,0,0,0-.723,1.786,2.888,2.888,0,0,0,.511,2.1,2.22,2.22,0,0,0,2.311.784C22.818,23.05,22.89,22.983,22.764,22.43Z" transform="translate(-19.332 -17.917)"/></g><g transform="translate(0 27.29)"><path class="a" d="M6.689,32.571v-7.79H2.036c-.064,1.322-.1,2.623-.2,3.921A9.708,9.708,0,0,1,.978,32.07a.725.725,0,0,1-.884.509.231.231,0,0,0-.094.03v2.858H1.389V33.58H6.42v1.892H7.769v-2.9Zm-1.507-.01H2.136c.26-.65.577-1.29.77-1.955A14.833,14.833,0,0,0,3.3,26.535c0-.211,0-.424,0-.655H5.183C5.181,28.09,5.181,30.307,5.181,32.561Z" transform="translate(0 -24.781)"/></g><g transform="translate(16.437 18.458)"><path class="a" d="M16.119,22.5c-.235.068-.461.15-.7.2a1.188,1.188,0,0,1-1.38-.428,2.662,2.662,0,0,1-.262-1.554h2.487a3.257,3.257,0,0,0-.564-2.28,1.257,1.257,0,0,0-1.868-.207,2.379,2.379,0,0,0-.572.672,3.437,3.437,0,0,0-.445,2.155,4.776,4.776,0,0,0,.382,1.365,1.594,1.594,0,0,0,1.707.884,4.9,4.9,0,0,0,1.085-.263C16.376,22.909,16.387,22.786,16.119,22.5Zm-1.928-3.683a.593.593,0,0,1,.991.027,2.12,2.12,0,0,1,.3,1.321H13.75A2.241,2.241,0,0,1,14.192,18.818Z" transform="translate(-12.791 -17.908)"/></g><g transform="translate(16.508 27.276)"><path class="a" d="M18.39,24.949c-.054-.066-.122-.164-.19-.167-.41-.017-.821-.01-1.275-.01V28.4h-2.66V24.778H12.846v8.869h1.437V33.3c0-1.036,0-2.065,0-3.1,0-.569,0-.569.681-.569h1.971V33.65h1.442c.006-.1.017-.181.017-.261V25.057C18.394,25.019,18.412,24.973,18.39,24.949Z" transform="translate(-12.846 -24.77)"/></g><g transform="translate(21.03 18.656)"><path class="a" d="M18.179,20.057c.5-.571.97-1.153,1.452-1.73.059-.071.111-.145.193-.253a3.047,3.047,0,0,1-.333,0,.729.729,0,0,0-.758.319c-.423.555-.892,1.085-1.344,1.623-.051.06-.116.113-.239.233V18.089h-.785v4.9h.8c0-.582-.013-1.153.008-1.721a2.886,2.886,0,0,1,.149-.586.794.794,0,0,1,.276.265c.41.616.815,1.231,1.229,1.843.054.081.146.19.234.2a6.4,6.4,0,0,0,.763.01c-.576-.876-1.113-1.7-1.663-2.528A.291.291,0,0,1,18.179,20.057Z" transform="translate(-16.365 -18.063)"/></g><g transform="translate(37.35 27.258)"><path class="a" d="M33.435,24.757a.37.37,0,0,0-.418.234c-.556,1.226-1.127,2.445-1.694,3.668-.248.535-.505,1.069-.756,1.6-.024,0-.044-.008-.068-.01V24.779H29.065v8.882h1.41q1.344-2.9,2.695-5.838v5.833h1.622V24.764C34.325,24.764,33.88,24.776,33.435,24.757Z" transform="translate(-29.065 -24.757)"/></g><g transform="translate(8.64 26.941)"><path class="a" d="M12.624,32.455c-.441.136-.838.292-1.257.378-1.361.279-2.25-.1-2.638-1.085a6.534,6.534,0,0,1-.3-2.367h4.441c-.062-.687-.068-1.358-.193-2.007a4.221,4.221,0,0,0-1.121-2.249,2.021,2.021,0,0,0-2.128-.514,2.858,2.858,0,0,0-1.809,1.473,6.7,6.7,0,0,0-.344,6.006,2.733,2.733,0,0,0,1.367,1.491,4.625,4.625,0,0,0,4.256-.455C12.8,32.895,12.709,32.661,12.624,32.455ZM9.1,26.165a1.052,1.052,0,0,1,.956-.513,1.068,1.068,0,0,1,.912.574,4.2,4.2,0,0,1,.47,2.222H8.386A4.472,4.472,0,0,1,9.1,26.165Z" transform="translate(-6.724 -24.51)"/></g><g transform="translate(11.482 18.681)"><path class="a" d="M12.66,22.437V18.082H10.035c0,.326.012.619,0,.914a8.227,8.227,0,0,1-.508,3.026c-.105.242-.184.5-.591.446v1.581h.757V23.022h2.844v1.022h.716V22.46Zm-.829,0H10.063a6.881,6.881,0,0,0,.718-3.737h1.05Z" transform="translate(-8.935 -18.082)"/></g><g transform="translate(31.313 27.278)"><path class="a" d="M24.367,24.772c0,2.974,0,5.925,0,8.878h1.312V25.665h4v-.893Z" transform="translate(-24.367 -24.772)"/></g></g></svg>