<svg xmlns="http://www.w3.org/2000/svg" viewBox="0 0 17.349 20.818"><defs><style>.a{fill:#fff;}</style></defs><g transform="translate(-7.5)"><path class="a" d="M22.175,15.228H21.032l.005-.664a.539.539,0,0,1,.538-.536h.073a.539.539,0,0,1,.539.536Zm-4.285-1.422a.488.488,0,0,0-.527.433v3.228a.538.538,0,0,0,1.055,0V14.239A.489.489,0,0,0,17.889,13.806ZM24.849,12v6.14a2.77,2.77,0,0,1-2.838,2.678H10.339A2.77,2.77,0,0,1,7.5,18.141V12a2.77,2.77,0,0,1,2.839-2.678H22.011A2.77,2.77,0,0,1,24.849,12ZM11.117,18.808V12.34h1.447v-.958l-3.857-.006v.942l1.2,0v6.486Zm4.337-5.5H14.248v3.454a6.122,6.122,0,0,1,0,.838c-.1.268-.539.552-.711.029a6.874,6.874,0,0,1,0-.843l0-3.478h-1.2l0,3.423c0,.525-.012.916,0,1.094.029.314.019.68.31.889a1.457,1.457,0,0,0,1.843-.617l0,.713h.969V13.3Zm3.859,3.955,0-2.875c0-1.1-.82-1.752-1.933-.865l0-2.137-1.2,0-.006,7.377.991-.014.09-.459C18.519,19.448,19.315,18.652,19.314,17.258Zm3.775-.381-.9,0c0,.036,0,.077,0,.122v.5a.494.494,0,0,1-.494.49h-.177a.494.494,0,0,1-.495-.49V16.182h2.071V15.4a12.3,12.3,0,0,0-.062-1.465c-.148-1.03-1.594-1.194-2.325-.666a1.362,1.362,0,0,0-.506.681,3.835,3.835,0,0,0-.154,1.215v1.714C20.041,19.731,23.5,19.328,23.089,16.877Zm-4.64-9.306a.821.821,0,0,0,.29.366.84.84,0,0,0,.494.137.768.768,0,0,0,.462-.144,1.108,1.108,0,0,0,.338-.433l-.023.473h1.345V2.253H20.3V6.7a.441.441,0,0,1-.882,0V2.253h-1.1V6.11c0,.491.009.819.024.985A1.658,1.658,0,0,0,18.449,7.572Zm-4.075-3.23a4.759,4.759,0,0,1,.137-1.287,1.377,1.377,0,0,1,1.406-1.024,1.668,1.668,0,0,1,.8.181,1.333,1.333,0,0,1,.516.469,1.851,1.851,0,0,1,.249.6,4.749,4.749,0,0,1,.067.936V5.659a7.829,7.829,0,0,1-.063,1.168,1.852,1.852,0,0,1-.265.695A1.257,1.257,0,0,1,16.7,8a1.651,1.651,0,0,1-.73.153,2.026,2.026,0,0,1-.777-.131,1.067,1.067,0,0,1-.5-.4,1.76,1.76,0,0,1-.253-.641,6.179,6.179,0,0,1-.075-1.127V4.342Zm1.053,2.272a.537.537,0,1,0,1.068,0V3.569a.537.537,0,1,0-1.068,0ZM11.706,8.151h1.269V3.765l1.5-3.757H13.087L12.29,2.8,11.482,0H10.109L11.7,3.767Z" transform="translate(0)"/></g></svg>