<svg xmlns="http://www.w3.org/2000/svg" width="19.301" height="19.301" viewBox="0 0 19.301 19.301"><defs><style>.a{fill:#a1a1c3;stroke:#9b9bb5;stroke-width:0.3px;}</style></defs><g transform="translate(0.15 0.15)"><circle class="a" cx="0.928" cy="0.928" r="0.928" transform="translate(8.572 13.118)"/><path class="a" d="M9.5,0A9.5,9.5,0,1,0,19,9.5,9.495,9.495,0,0,0,9.5,0Zm0,17.516A8.016,8.016,0,1,1,17.516,9.5,8.011,8.011,0,0,1,9.5,17.516Z"/><path class="a" d="M178.969,128.5A2.972,2.972,0,0,0,176,131.469a.742.742,0,0,0,1.484,0,1.484,1.484,0,1,1,1.484,1.484.742.742,0,0,0-.742.742v1.855a.742.742,0,0,0,1.484,0v-1.207a2.969,2.969,0,0,0-.742-5.844Z" transform="translate(-169.469 -123.731)"/></g></svg>