<svg xmlns="http://www.w3.org/2000/svg" xmlns:xlink="http://www.w3.org/1999/xlink" width="200" height="200" viewBox="0 0 200 200">
  <defs>
    <style>
      .cls-1 {
        fill: url(#linear-gradient);
      }

      .cls-2 {
        fill: #fff;
      }
    </style>
    <linearGradient id="linear-gradient" y1="0.566" x2="1" y2="0.572" gradientUnits="objectBoundingBox">
      <stop offset="0" stop-color="#9834d7"/>
      <stop offset="1" stop-color="#3d79dc"/>
    </linearGradient>
  </defs>
  <g id="Group_4868" data-name="Group 4868" transform="translate(8943 12793)">
    <circle id="Ellipse_162" data-name="Ellipse 162" class="cls-1" cx="100" cy="100" r="100" transform="translate(-8943 -12793)"/>
    <path id="Exclusion_18" data-name="Exclusion 18" class="cls-2" d="M46.307,122c-12.25,0-26.679-.123-28.628-.321-2.486-.253-9.476-4.431-13.069-8.9-1.459-1.816-2.121-3.407-1.967-4.727.419-3.625,1.19-4.166,1.612-4.166a.487.487,0,0,1,.288.093h60.7c.03-.007,3.111-.738,2.9-5.451s-4.285-4.752-4.327-4.752H16.957c-.074-.019-7.379-1.93-11.553-7.038C1.218,81.605.012,73.114,0,73.029V0H62.186A21.966,21.966,0,0,1,70.7,3.221c4.223,2.611,9.9,7.893,12.988,18.231a37.85,37.85,0,0,1-.672,24.3,33.151,33.151,0,0,1-5.153,9.292,8.415,8.415,0,0,1,5.194,6.235c.751,4.606-2.438,5.69-2.471,5.7h-57.2a6.469,6.469,0,0,0-4.26,1.643,4.2,4.2,0,0,0-1.054,3.258c.223,3.888,3.412,4.308,4.772,4.308a4.959,4.959,0,0,0,.542-.026c.808-.018,19.845-.439,32.752-.439,7.7,0,11.744.148,12.015.439a5.8,5.8,0,0,0,1.407.658,26.893,26.893,0,0,1,9.276,5.646c4.1,4.023,6.132,9.426,6.048,16.06-.1,7.6-2.68,13.7-7.673,18.122a24.378,24.378,0,0,1-8.975,5.008l-.084.026C67.381,121.918,56.362,122,46.307,122ZM16.816,16.338V48.279H58.1a11.644,11.644,0,0,0,5.643-2.086c2.576-1.812,5.651-5.608,5.67-13.4s-3.06-11.851-5.644-13.884A12.666,12.666,0,0,0,58.1,16.338Z" transform="translate(-8883.879 -12749.377)"/>
  </g>
</svg>
