<svg xmlns="http://www.w3.org/2000/svg" width="25" height="18.001" viewBox="0 0 25 18.001"><defs><style>.a{fill:#8585aa;}</style></defs><path class="a" d="M38.945,330.523a2.252,2.252,0,0,0,1.463-.506l-7.083-6.491-.49.323q-.8.537-1.291.837a8.248,8.248,0,0,1-1.318.614,4.331,4.331,0,0,1-1.535.313h-.028a4.329,4.329,0,0,1-1.535-.313,8.221,8.221,0,0,1-1.318-.614q-.5-.3-1.291-.837c-.148-.1-.312-.208-.489-.325l-7.084,6.493a2.253,2.253,0,0,0,1.463.506Z" transform="translate(-16.177 -312.523)"/><path class="a" d="M1.409,199.667A7.257,7.257,0,0,1,0,198.555v9.876l6.243-5.721Q4.369,201.511,1.409,199.667Z" transform="translate(0 -192.751)"/><path class="a" d="M418.154,199.667q-2.85,1.768-4.845,3.044l6.24,5.719v-9.876A7.543,7.543,0,0,1,418.154,199.667Z" transform="translate(-394.549 -192.751)"/><path class="a" d="M22.773,59.013H2.238a2.074,2.074,0,0,0-1.653.665A2.439,2.439,0,0,0,.006,61.34a2.851,2.851,0,0,0,.767,1.745,6.679,6.679,0,0,0,1.632,1.476q.474.307,2.86,1.822c.859.545,1.605,1.021,2.247,1.431.547.349,1.019.652,1.408.9l.208.136.385.254q.453.3.753.486t.726.415a4.419,4.419,0,0,0,.8.345,2.4,2.4,0,0,0,.7.115h.028a2.4,2.4,0,0,0,.7-.115,4.41,4.41,0,0,0,.8-.345q.425-.23.726-.415t.753-.486l.384-.254.209-.136,1.412-.9,5.117-3.256a6.38,6.38,0,0,0,1.7-1.572,3.194,3.194,0,0,0,.683-1.93,1.885,1.885,0,0,0-.663-1.445A2.26,2.26,0,0,0,22.773,59.013Z" transform="translate(-0.006 -59.013)"/></svg>