<svg xmlns="http://www.w3.org/2000/svg" viewBox="0 0 18.367 19.308"><defs><style>.a{fill:#9b9bb5;stroke:#9b9bb5;stroke-width:0.7px;}</style></defs><g transform="translate(-42.191 -520.707)"><path class="a" d="M0,2.211V7.228H4.944V2.211L2.472,0ZM4.17,6.288H.712V2.835l1.76-1.5,1.7,1.432Z" transform="translate(53.846 528.285) rotate(180)"/><path class="a" d="M75,143.773v5.017h4.944v-5.017l-2.472-2.211Zm4.17,4.077H75.712V144.4l1.76-1.5,1.7,1.432Z" transform="translate(-26.099 390.875)"/><path class="a" d="M0,2.3V7.52H4.752V2.3L2.376,0ZM4.008,6.542H.684V2.949L2.376,1.387l1.632,1.49Z" transform="translate(50.061 527.987) rotate(90)"/><path class="a" d="M0,2.3V7.52H4.752V2.3L2.376,0ZM4.008,6.542H.684V2.949L2.376,1.387l1.632,1.49Z" transform="translate(52.688 532.738) rotate(-90)"/></g></svg>