<svg xmlns="http://www.w3.org/2000/svg" width="17" height="17" viewBox="0 0 17 17"><defs><style>.a{fill:#484d78;}</style></defs><path class="a" d="M8.5,0A8.5,8.5,0,1,0,17,8.5,8.5,8.5,0,0,0,8.5,0Zm2.318,11.782a2.7,2.7,0,0,1-1.812.828v1.2H8v-1.2a2.636,2.636,0,0,1-2.446-2.3l1.556-.406A1.353,1.353,0,0,0,8.543,11.23a1.109,1.109,0,0,0,.837-.281.951.951,0,0,0,.268-.68.749.749,0,0,0-.268-.625A4.838,4.838,0,0,0,8.189,9.1a7.009,7.009,0,0,1-1.3-.57,2.142,2.142,0,0,1-.758-.787,2.333,2.333,0,0,1-.292-1.181,2.618,2.618,0,0,1,.521-1.59A2.328,2.328,0,0,1,8,4.116V3.188H9.006v.929a2.434,2.434,0,0,1,2.184,1.909L9.8,6.594Q9.4,5.424,8.55,5.424a.916.916,0,0,0-.684.261.869.869,0,0,0-.258.634.71.71,0,0,0,.249.583,4.277,4.277,0,0,0,1.065.5,9.448,9.448,0,0,1,1.406.618,2.21,2.21,0,0,1,.815.8,2.313,2.313,0,0,1,.3,1.2A2.538,2.538,0,0,1,10.818,11.782Z"/></svg>