<svg xmlns="http://www.w3.org/2000/svg" width="55.57" height="20" viewBox="0 0 55.57 20"><defs><style>.a{fill:#f8f8f8;}</style></defs><g transform="translate(-431 -703)"><path class="a" d="M27.888,3.8v8.865a.24.24,0,0,1-.246.246H25.834a.24.24,0,0,1-.246-.246V3.8a.24.24,0,0,1,.246-.246h1.808a.24.24,0,0,1,.246.246ZM42,3.553a.415.415,0,0,1,.246.105.224.224,0,0,1,.035.211L39.3,12.751a.25.25,0,0,1-.228.158H37.456a.227.227,0,0,1-.228-.158L35.489,7.573l-1.738,5.178a.25.25,0,0,1-.228.158H31.908a.226.226,0,0,1-.228-.158L28.7,3.868a.232.232,0,0,1,.035-.21.221.221,0,0,1,.193-.105h2.019a.243.243,0,0,1,.229.175l1.6,5.249,1.756-5.249a.25.25,0,0,1,.228-.158h1.422a.227.227,0,0,1,.228.158l1.756,5.249,1.6-5.249a.242.242,0,0,1,.228-.175H42Zm3.054,0A.264.264,0,0,1,45.3,3.8v8.865a.24.24,0,0,1-.246.246H43.249A.24.24,0,0,1,43,12.664V3.8a.24.24,0,0,1,.246-.246ZM24.535,12.594a.179.179,0,0,1-.141.3H22.183a.283.283,0,0,1-.228-.105l-.368-.456a4.951,4.951,0,0,1-2.651.79,4.884,4.884,0,1,1,4.126-2.247l1.475,1.72Zm-4.389-1.966L19.18,9.451a.192.192,0,0,1,.141-.316h2.036a2.628,2.628,0,0,0,.158-.913,2.584,2.584,0,1,0-5.162,0,2.624,2.624,0,0,0,2.581,2.7A2.43,2.43,0,0,0,20.146,10.627Z" transform="translate(441.267 703.793)"/><path class="a" d="M15.418,14.205c.336.129.466.633.491.853.052.4-.064.556-.194.556s-.311-.155-.5-.465a.947.947,0,0,1-.168-.841.285.285,0,0,1,.375-.1Zm-1.965,1.461a1.009,1.009,0,0,1,.647.271c.4.336.517.724.31,1.009a.681.681,0,0,1-.53.233.922.922,0,0,1-.608-.22.849.849,0,0,1-.233-1.112.5.5,0,0,1,.414-.181ZM8.929,19.4a8.88,8.88,0,1,1,7.641-4.331.059.059,0,0,1-.1-.026A4.131,4.131,0,0,0,12.885,11.3c-.168-.026-.194-.129.026-.155a8.832,8.832,0,0,1,1.875.039,5.949,5.949,0,0,0,.039-.685,5.883,5.883,0,1,0-5.882,5.883h.271a7.936,7.936,0,0,1-.117-1.59c.013-.362.091-.414.246-.129a6.137,6.137,0,0,0,4.253,3.18,8.657,8.657,0,0,1,5.727,3.439c.181.22-.09.452-.3.272a8.274,8.274,0,0,0-5.6-2.4c-1.9.013-3.193.259-4.5.259Z" transform="translate(430.966 701.387)"/></g></svg>