<svg xmlns="http://www.w3.org/2000/svg" viewBox="0 0 19 19"><defs><style>.a{fill:#9b9bb5;}</style></defs><path class="a" d="M2.9,5.8A2.9,2.9,0,1,1,5.8,2.9,2.9,2.9,0,0,1,2.9,5.8Zm0-4.55A1.649,1.649,0,1,0,4.55,2.9,1.651,1.651,0,0,0,2.9,1.251Z" transform="translate(6.541 6.879)"/><path class="a" d="M11.24,19H7.76a.8.8,0,0,1-.8-.8V16.5a.362.362,0,0,0-.367-.364.35.35,0,0,0-.252.108l-1.2,1.2a.8.8,0,0,1-1.128,0L1.552,14.987a.8.8,0,0,1,0-1.128l1.2-1.2a.362.362,0,0,0-.256-.619H.8a.8.8,0,0,1-.8-.8V7.76a.8.8,0,0,1,.8-.8H2.5a.362.362,0,0,0,.256-.619l-1.2-1.2a.8.8,0,0,1,0-1.128L4.013,1.552a.8.8,0,0,1,1.128,0l1.2,1.2a.35.35,0,0,0,.252.108A.362.362,0,0,0,6.962,2.5V.8a.8.8,0,0,1,.8-.8H11.24a.8.8,0,0,1,.8.8V2.5a.362.362,0,0,0,.367.364.35.35,0,0,0,.252-.108l1.2-1.2a.8.8,0,0,1,1.128,0l2.462,2.462a.8.8,0,0,1,0,1.128l-1.2,1.2a.362.362,0,0,0,.256.619h1.7a.8.8,0,0,1,.8.8V11.24a.8.8,0,0,1-.8.8H16.5a.362.362,0,0,0-.256.619l1.2,1.2a.8.8,0,0,1,0,1.128l-2.462,2.462a.8.8,0,0,1-1.128,0l-1.2-1.2a.35.35,0,0,0-.252-.108.362.362,0,0,0-.367.364v1.7A.8.8,0,0,1,11.24,19ZM6.595,14.544A1.963,1.963,0,0,1,8.557,16.5v.9h1.886v-.9a1.963,1.963,0,0,1,1.962-1.959,1.94,1.94,0,0,1,1.38.574l.638.638,1.333-1.333-.638-.638A1.958,1.958,0,0,1,16.5,10.443h.9V8.557h-.9a1.958,1.958,0,0,1-1.384-3.342l.638-.638L14.423,3.244l-.638.638a1.94,1.94,0,0,1-1.38.574A1.963,1.963,0,0,1,10.443,2.5V1.6H8.557v.9A1.963,1.963,0,0,1,6.595,4.456a1.94,1.94,0,0,1-1.38-.574l-.638-.638L3.244,4.577l.638.638A1.958,1.958,0,0,1,2.5,8.557H1.6v1.886h.9a1.958,1.958,0,0,1,1.384,3.342l-.638.638,1.333,1.333.638-.638A1.94,1.94,0,0,1,6.595,14.544Z" transform="translate(0 0)"/></svg>