<svg xmlns="http://www.w3.org/2000/svg" width="20.002" height="20.001" viewBox="0 0 20.002 20.001"><defs><style>.a{fill:#a9abbf;}</style></defs><path class="a" d="M13498,12215a10,10,0,1,1,10-10A10.012,10.012,0,0,1,13498,12215Zm-3.665-5.251c-.033,0-.116.041-.159.417a.667.667,0,0,0,.2.472,2.9,2.9,0,0,0,1.3.892c.2.02,1.67.033,2.864.033.96,0,2.107-.009,2.184-.033l.01,0a2.422,2.422,0,0,0,.9-.5,2.355,2.355,0,0,0,.77-1.813,2.131,2.131,0,0,0-.606-1.607,2.63,2.63,0,0,0-.926-.562.5.5,0,0,1-.143-.067,7.122,7.122,0,0,0-1.2-.045c-1,0-2.386.027-2.977.039h-.057l-.085,0-.156,0a.512.512,0,0,1-.055,0,.434.434,0,0,1-.478-.431.4.4,0,0,1,.1-.325.639.639,0,0,1,.428-.163h5.719a.476.476,0,0,0,.247-.572.851.851,0,0,0-.519-.624l.006-.008a3.575,3.575,0,0,0,.51-.921,3.779,3.779,0,0,0,.064-2.428,3.063,3.063,0,0,0-1.3-1.823,2.158,2.158,0,0,0-.851-.322h-6.218v7.3a3.244,3.244,0,0,0,.539,1.37,2.487,2.487,0,0,0,1.146.7l.011,0h4.688a.45.45,0,0,1,.431.475.581.581,0,0,1-.135.448.336.336,0,0,1-.157.1h-6.067A.065.065,0,0,0,13494.336,12209.75Zm5.387-5.56h-4.129V12201h4.129a1.262,1.262,0,0,1,.566.254,1.65,1.65,0,0,1,.563,1.391,1.511,1.511,0,0,1-.565,1.339A1.183,1.183,0,0,1,13499.723,12204.19Z" transform="translate(-13488 -12195)"/></svg>