<svg xmlns="http://www.w3.org/2000/svg" viewBox="0 0 16.027 18.233"><defs><style>.a{fill:#9b9bb5;stroke:#9b9bb5;stroke-width:1.2px;}</style></defs><path class="a" d="M25.622,5.921a.533.533,0,1,0-.564.905,1.973,1.973,0,0,1,0,3.348l-8.748,5.455a1.973,1.973,0,0,1-3.017-1.674V3.045a1.973,1.973,0,0,1,3.017-1.674L21.4,4.547a.533.533,0,1,0,.564-.905L16.874.466a3.039,3.039,0,0,0-4.648,2.579V13.954a3,3,0,0,0,1.565,2.658,3,3,0,0,0,3.083-.078l8.748-5.455a3.039,3.039,0,0,0,0-5.158Z" transform="translate(-11.626 0.634)"/></svg>