<svg xmlns="http://www.w3.org/2000/svg" width="16.2" height="16.172" viewBox="0 0 16.2 16.172"><defs><style>.a{fill:#a1a1c3;}</style></defs><path class="a" d="M31.2,77.7A8.88,8.88,0,0,0,29,76.1a5.038,5.038,0,0,0,1.3-2.5,4.876,4.876,0,0,0-.8-3.7,4.608,4.608,0,0,0-3.1-2,4.876,4.876,0,0,0-3.7.8,4.608,4.608,0,0,0-2,3.1,4.876,4.876,0,0,0,.8,3.7c.2.2.3.4.5.6a7.844,7.844,0,0,0-4.5,7.2v.6h2.3v-.5a5.8,5.8,0,0,1,5.8-5.8h0a5.835,5.835,0,0,1,4.1,1.7,5.664,5.664,0,0,1,1.7,4.1V84h2.3v-.5A8.8,8.8,0,0,0,31.2,77.7Zm-3.1-4.9a2.6,2.6,0,1,1-2.6-2.6A2.582,2.582,0,0,1,28.1,72.8Z" transform="translate(-17.5 -67.828)"/></svg>