<svg xmlns="http://www.w3.org/2000/svg" width="79.762" height="21" viewBox="0 0 79.762 21"><defs><style>.a{fill:#fff;}</style></defs><g transform="translate(0 -18.377)"><g transform="translate(73.388 28.768)"><g transform="translate(0 0)"><rect class="a" width="2.523" height="2.521" transform="translate(0 1.691) rotate(-42.098)"/></g></g><g transform="translate(69.033 30.29)"><g transform="translate(0 0)"><rect class="a" width="3.359" height="3.361" transform="matrix(0.743, -0.669, 0.669, 0.743, 0, 2.247)"/></g></g><g transform="translate(77.39 28.172)"><g transform="translate(0 0)"><rect class="a" width="1.679" height="1.679" transform="translate(0 1.124) rotate(-42.029)"/></g></g><g transform="translate(70.059 21.052)"><g transform="translate(0 0)"><rect class="a" width="2.521" height="2.521" transform="matrix(0.743, -0.669, 0.669, 0.743, 0, 1.687)"/></g></g><g transform="translate(75.796 24.446)"><g transform="translate(0 0)"><rect class="a" width="1.677" height="1.679" transform="translate(0 1.124) rotate(-42.098)"/></g></g><g transform="translate(0 24.551)"><path class="a" d="M8.366,22.239,7.143,28.578H7.059L5.393,22.239H4.326L2.769,28.578H2.684L1.343,22.239H0l1.941,8.5h1.3l1.581-5.981H4.9l1.629,5.981h1.3l1.943-8.5Z" transform="translate(0 -22.239)"/></g><g transform="translate(67.259 25.963)"><g transform="translate(0 0)"><rect class="a" width="3.362" height="3.361" transform="matrix(0.743, -0.669, 0.669, 0.743, 0, 2.249)"/></g></g><g transform="translate(65.476 21.707)"><g transform="translate(0 0)"><rect class="a" width="3.361" height="3.361" transform="matrix(0.743, -0.669, 0.669, 0.743, 0, 2.248)"/></g></g><g transform="translate(71.784 24.82)"><g transform="translate(0 0)"><rect class="a" width="2.518" height="2.523" transform="translate(0 1.687) rotate(-42.069)"/></g></g><g transform="translate(74.191 20.742)"><g transform="translate(0 0)"><rect class="a" width="1.679" height="1.679" transform="translate(0 1.124) rotate(-42.029)"/></g></g><g transform="translate(50.643 27.114)"><path class="a" d="M35.959,23.842,34.6,28.256h-.072l-1.533-4.413H31.676l2.3,5.994c-.288.887-.79,1.533-1.605,1.533v.98c1.377,0,2.107-.862,2.707-2.516l2.166-5.992H35.959Z" transform="translate(-31.676 -23.842)"/></g><g transform="translate(10.117 26.914)"><path class="a" d="M11.466,26.643c0-1.959-.921-2.926-2.419-2.926-1.8,0-2.72,1.316-2.72,3.138,0,1.895.828,3.14,2.839,3.14a4.189,4.189,0,0,0,2.12-.555v-.907a3.691,3.691,0,0,1-1.9.622c-1.233,0-1.821-.633-1.821-2.074h3.9Zm-3.88-.365c.131-1.2.7-1.76,1.426-1.76.648,0,1.258.5,1.317,1.76Z" transform="translate(-6.328 -23.717)"/></g><g transform="translate(75.037 32.553)"><g transform="translate(0 0)"><rect class="a" width="2.521" height="2.523" transform="translate(0 1.688) rotate(-42.021)"/></g></g><g transform="translate(45.127 26.914)"><path class="a" d="M33.363,26.643c0-1.959-.921-2.926-2.417-2.926-1.8,0-2.72,1.316-2.72,3.138,0,1.895.827,3.14,2.838,3.14a4.187,4.187,0,0,0,2.118-.555v-.907a3.681,3.681,0,0,1-1.9.622c-1.233,0-1.823-.633-1.823-2.074h3.906Zm-3.882-.365c.134-1.2.7-1.76,1.429-1.76.644,0,1.258.5,1.317,1.76Z" transform="translate(-28.226 -23.717)"/></g><g transform="translate(58.679 18.377)"><path class="a" d="M51.647,34.677l-2.441,2.251-4.122-4.587,1.146-1.009L43.345,28.1,44.5,27.09l-2.929-3.228,4.571-4.115,1.452,1.589,2.451-2.187,1.448,1.5.966-.865c-.216-.125-.432-.24-.651-.344a10.5,10.5,0,1,0,.572,18.567,11.443,11.443,0,0,0,1.381-.918Z" transform="translate(-36.702 -18.377)"/></g><g transform="translate(16.346 23.942)"><path class="a" d="M13.089,24.83a3.62,3.62,0,0,0-1.62.443V21.858l-1.245.3V30.52a5.575,5.575,0,0,0,2.337.587c1.738,0,2.815-1.092,2.815-3.333C15.377,25.86,14.574,24.83,13.089,24.83Zm-.528,5.437a2.767,2.767,0,0,1-1.1-.19V26.159a2.5,2.5,0,0,1,1.3-.395c.8,0,1.356.492,1.356,2.011C14.12,29.716,13.449,30.268,12.561,30.268Z" transform="translate(-10.224 -21.858)"/></g><g transform="translate(38.982 26.911)"><path class="a" d="M27.437,23.715a6.133,6.133,0,0,0-3.055.886v5.247h1.244V25.1a3.3,3.3,0,0,1,1.461-.432c.616,0,1.081.168,1.081,1.114V29.85h1.245V25.514C29.413,24.281,28.873,23.718,27.437,23.715Z" transform="translate(-24.382 -23.715)"/></g><g transform="translate(22.821 24.551)"><path class="a" d="M21.029,22.239l-2.561,6.7h-.061l-2.684-6.7H14.274v8.5h1.078V24.719h.107L17.9,30.735h.766l2.445-6.162h.107v6.162h1.293v-8.5Z" transform="translate(-14.274 -22.239)"/></g><g transform="translate(32.379 26.914)"><path class="a" d="M22.984,23.717c-1.581,0-2.732,1.042-2.732,3.138,0,2.048,1.092,3.14,2.732,3.14s2.732-1.092,2.732-3.14C25.717,24.758,24.566,23.717,22.984,23.717Zm0,5.437c-.851,0-1.474-.655-1.474-2.3,0-1.618.684-2.3,1.474-2.3.815,0,1.474.683,1.474,2.3C24.458,28.5,23.835,29.154,22.984,29.154Z" transform="translate(-20.252 -23.717)"/></g></g></svg>