<svg xmlns="http://www.w3.org/2000/svg" width="18.473" height="13" viewBox="0 0 18.473 13"><defs><style>.a{fill:#fff;}</style></defs><path class="a" d="M17.752,76.954c-.667-.793-1.9-1.116-4.249-1.116H4.969c-2.4,0-3.657.344-4.321,1.188C0,77.849,0,79.061,0,80.739v3.2c0,3.251.768,4.9,4.969,4.9H13.5c2.039,0,3.169-.285,3.9-.985.75-.717,1.069-1.889,1.069-3.916v-3.2C18.472,78.97,18.422,77.75,17.752,76.954ZM11.859,82.78,7.984,84.8a.6.6,0,0,1-.872-.528V80.239a.6.6,0,0,1,.871-.529l3.875,2.012a.6.6,0,0,1,0,1.057Z" transform="translate(0 -75.838)"/></svg>